<svg xmlns="http://www.w3.org/2000/svg" width="1800" height="2500" viewBox="0 0 1800 2500">
  <defs>
    <linearGradient id="bg" x1="0" y1="0" x2="0" y2="1"><stop offset="0%" stop-color="#d9e8f2"/><stop offset="58%" stop-color="#eef6fa"/><stop offset="100%" stop-color="#d7dde2"/></linearGradient>
    <filter id="softShadow" x="-10%" y="-10%" width="120%" height="120%"><feDropShadow dx="0" dy="8" stdDeviation="10" flood-color="#6d7f8a" flood-opacity="0.16"/></filter>
  </defs>
  <rect width="100%" height="100%" fill="url(#bg)"/>
  <circle cx="1450" cy="310" r="500" fill="#ffffff" opacity="0.18"/>
  <circle cx="260" cy="2140" r="620" fill="#ffffff" opacity="0.20"/>
  <text x="900" y="70" text-anchor="middle" font-family="Arial, sans-serif" font-size="48" font-weight="800" fill="#202124">Leverkusen — Gesamtstadt</text>
  <text x="900" y="112" text-anchor="middle" font-family="Arial, sans-serif" font-size="22" fill="#4b5055">Alle erfassten PLZ — gelöschte Rezensionen wegen „Diffamierung“</text>
  <text x="900" y="160" text-anchor="middle" font-family="Arial, sans-serif" font-size="18" fill="#6f7377">1.620 Orte erfasst · 133 mit sichtbarem Banner (8,2%) · 3 in der „Über“-Stufe</text><g><text x="80" y="230" font-family="Arial, sans-serif" font-size="27" font-weight="800" fill="#202124">1. Höchste Lösch-Quote</text><text x="80" y="260" font-family="Arial, sans-serif" font-size="16" fill="#6f7377">Anteil gelöschter Rezensionen</text><rect x="80" y="322" width="470" height="1104" fill="#ffffff" opacity="0.96" filter="url(#softShadow)"/><line x1="114.0" y1="322" x2="114.0" y2="1406.0" stroke="#dde3e8" stroke-width="1"/><line x1="214.5" y1="322" x2="214.5" y2="1406.0" stroke="#dde3e8" stroke-width="1"/><line x1="315.0" y1="322" x2="315.0" y2="1406.0" stroke="#dde3e8" stroke-width="1"/><line x1="415.5" y1="322" x2="415.5" y2="1406.0" stroke="#dde3e8" stroke-width="1"/><line x1="516.0" y1="322" x2="516.0" y2="1406.0" stroke="#dde3e8" stroke-width="1"/><text x="72" y="361.0" text-anchor="end" font-family="Arial, sans-serif" font-size="13" fill="#83888d">1.</text><text x="114" y="342.0" font-family="Arial, sans-serif" font-size="14" fill="#202124">Pizza Cab Leverkusen</text><rect x="114" y="346.0" width="402.0" height="18" fill="#c9332c"/><text x="524.0" y="361.0" font-family="Arial, sans-serif" font-size="13" fill="#202124">53,4%  (51–100 von 66)</text><text x="72" y="397.0" text-anchor="end" font-family="Arial, sans-serif" font-size="13" fill="#83888d">2.</text><text x="114" y="378.0" font-family="Arial, sans-serif" font-size="14" fill="#202124">Hotel Solinger Hof</text><rect x="114" y="382.0" width="332.2" height="18" fill="#c9332c"/><text x="454.2" y="397.0" font-family="Arial, sans-serif" font-size="13" fill="#202124">44,1%  (21–50 von 45)</text><text x="72" y="433.0" text-anchor="end" font-family="Arial, sans-serif" font-size="13" fill="#83888d">3.</text><text x="114" y="414.0" font-family="Arial, sans-serif" font-size="14" fill="#202124">THE CLOUTH</text><rect x="114" y="418.0" width="289.1" height="18" fill="#c9332c"/><text x="411.1" y="433.0" font-family="Arial, sans-serif" font-size="13" fill="#202124">38,4%  (21–50 von 57)</text><text x="72" y="469.0" text-anchor="end" font-family="Arial, sans-serif" font-size="13" fill="#83888d">4.</text><text x="114" y="450.0" font-family="Arial, sans-serif" font-size="14" fill="#202124">Hair-Creation E &amp; H</text><rect x="114" y="454.0" width="273.9" height="18" fill="#c9332c"/><text x="395.9" y="469.0" font-family="Arial, sans-serif" font-size="13" fill="#202124">36,4%  (6–10 von 14)</text><text x="72" y="505.0" text-anchor="end" font-family="Arial, sans-serif" font-size="13" fill="#83888d">5.</text><text x="114" y="486.0" font-family="Arial, sans-serif" font-size="14" fill="#202124">StayInCologne</text><rect x="114" y="490.0" width="256.7" height="18" fill="#c9332c"/><text x="378.7" y="505.0" font-family="Arial, sans-serif" font-size="13" fill="#202124">34,1%  (11–20 von 30)</text><text x="72" y="541.0" text-anchor="end" font-family="Arial, sans-serif" font-size="13" fill="#83888d">6.</text><text x="114" y="522.0" font-family="Arial, sans-serif" font-size="14" fill="#202124">Hotel-Pension Schlafpunkt GmbH - Leverkusen</text><rect x="114" y="526.0" width="233.5" height="18" fill="#c9332c"/><text x="355.5" y="541.0" font-family="Arial, sans-serif" font-size="13" fill="#202124">31,0%  (21–50 von 79)</text><text x="72" y="577.0" text-anchor="end" font-family="Arial, sans-serif" font-size="13" fill="#83888d">7.</text><text x="114" y="558.0" font-family="Arial, sans-serif" font-size="14" fill="#202124">Wiesdorfer Grill Inh. Nikolaos Papageorgiou</text><rect x="114" y="562.0" width="206.7" height="18" fill="#c9332c"/><text x="328.7" y="577.0" font-family="Arial, sans-serif" font-size="13" fill="#202124">27,4%  (101–150 von 332)</text><text x="72" y="613.0" text-anchor="end" font-family="Arial, sans-serif" font-size="13" fill="#83888d">8.</text><text x="114" y="594.0" font-family="Arial, sans-serif" font-size="14" fill="#202124">Daddy&#39;s Pizza Leverkusen</text><rect x="114" y="598.0" width="196.0" height="18" fill="#c9332c"/><text x="318.0" y="613.0" font-family="Arial, sans-serif" font-size="13" fill="#202124">26,0%  (21–50 von 101)</text><text x="72" y="649.0" text-anchor="end" font-family="Arial, sans-serif" font-size="13" fill="#83888d">9.</text><text x="114" y="630.0" font-family="Arial, sans-serif" font-size="14" fill="#202124">Leoso Hotel Leverkusen</text><rect x="114" y="634.0" width="188.5" height="18" fill="#c9332c"/><text x="310.5" y="649.0" font-family="Arial, sans-serif" font-size="13" fill="#202124">25,0%  (über 250 von 899)</text><text x="72" y="685.0" text-anchor="end" font-family="Arial, sans-serif" font-size="13" fill="#83888d">10.</text><text x="114" y="666.0" font-family="Arial, sans-serif" font-size="14" fill="#202124">Löwen Apotheke Leverkusen</text><rect x="114" y="670.0" width="182.6" height="18" fill="#c9332c"/><text x="304.6" y="685.0" font-family="Arial, sans-serif" font-size="13" fill="#202124">24,2%  (6–10 von 25)</text><text x="72" y="721.0" text-anchor="end" font-family="Arial, sans-serif" font-size="13" fill="#83888d">11.</text><text x="114" y="702.0" font-family="Arial, sans-serif" font-size="14" fill="#202124">Classic Hotel Harmonie</text><rect x="114" y="706.0" width="181.7" height="18" fill="#c9332c"/><text x="303.7" y="721.0" font-family="Arial, sans-serif" font-size="13" fill="#202124">24,1%  (über 250 von 944)</text><text x="72" y="757.0" text-anchor="end" font-family="Arial, sans-serif" font-size="13" fill="#83888d">12.</text><text x="114" y="738.0" font-family="Arial, sans-serif" font-size="14" fill="#202124">M_B Barbershop</text><rect x="114" y="742.0" width="175.6" height="18" fill="#c9332c"/><text x="297.6" y="757.0" font-family="Arial, sans-serif" font-size="13" fill="#202124">23,3%  (11–20 von 51)</text><text x="72" y="793.0" text-anchor="end" font-family="Arial, sans-serif" font-size="13" fill="#83888d">13.</text><text x="114" y="774.0" font-family="Arial, sans-serif" font-size="14" fill="#202124">Chocolate Haus</text><rect x="114" y="778.0" width="174.2" height="18" fill="#c9332c"/><text x="296.2" y="793.0" font-family="Arial, sans-serif" font-size="13" fill="#202124">23,1%  (51–100 von 251)</text><text x="72" y="829.0" text-anchor="end" font-family="Arial, sans-serif" font-size="13" fill="#83888d">14.</text><text x="114" y="810.0" font-family="Arial, sans-serif" font-size="14" fill="#202124">Rheinländer Seehotel</text><rect x="114" y="814.0" width="170.5" height="18" fill="#c9332c"/><text x="292.5" y="829.0" font-family="Arial, sans-serif" font-size="13" fill="#202124">22,6%  (11–20 von 53)</text><text x="72" y="865.0" text-anchor="end" font-family="Arial, sans-serif" font-size="13" fill="#83888d">15.</text><text x="114" y="846.0" font-family="Arial, sans-serif" font-size="14" fill="#202124">Veranstaltungsbüro Nolden GmbH</text><rect x="114" y="850.0" width="170.1" height="18" fill="#c9332c"/><text x="292.1" y="865.0" font-family="Arial, sans-serif" font-size="13" fill="#202124">22,6%  (2–5 von 12)</text><text x="72" y="901.0" text-anchor="end" font-family="Arial, sans-serif" font-size="13" fill="#83888d">16.</text><text x="114" y="882.0" font-family="Arial, sans-serif" font-size="14" fill="#202124">Restaurant Hoettche</text><rect x="114" y="886.0" width="164.5" height="18" fill="#c9332c"/><text x="286.5" y="901.0" font-family="Arial, sans-serif" font-size="13" fill="#202124">21,8%  (201–250 von 807)</text><text x="72" y="937.0" text-anchor="end" font-family="Arial, sans-serif" font-size="13" fill="#83888d">17.</text><text x="114" y="918.0" font-family="Arial, sans-serif" font-size="14" fill="#202124">Eiscafé Minini</text><rect x="114" y="922.0" width="156.9" height="18" fill="#c9332c"/><text x="278.9" y="937.0" font-family="Arial, sans-serif" font-size="13" fill="#202124">20,8%  (51–100 von 287)</text><text x="72" y="973.0" text-anchor="end" font-family="Arial, sans-serif" font-size="13" fill="#83888d">18.</text><text x="114" y="954.0" font-family="Arial, sans-serif" font-size="14" fill="#202124">Sushi Palace Leverkusen</text><rect x="114" y="958.0" width="154.1" height="18" fill="#c9332c"/><text x="276.1" y="973.0" font-family="Arial, sans-serif" font-size="13" fill="#202124">20,5%  (21–50 von 138)</text><text x="72" y="1009.0" text-anchor="end" font-family="Arial, sans-serif" font-size="13" fill="#83888d">19.</text><text x="114" y="990.0" font-family="Arial, sans-serif" font-size="14" fill="#202124">SMARTY Leichlingen-Cologne Hotel | Boardingh…</text><rect x="114" y="994.0" width="146.5" height="18" fill="#c9332c"/><text x="268.5" y="1009.0" font-family="Arial, sans-serif" font-size="13" fill="#202124">19,4%  (21–50 von 147)</text><text x="72" y="1045.0" text-anchor="end" font-family="Arial, sans-serif" font-size="13" fill="#83888d">20.</text><text x="114" y="1026.0" font-family="Arial, sans-serif" font-size="14" fill="#202124">Hautarzt Ludger UEBERHORST &amp; Dr.med. Kirsten…</text><rect x="114" y="1030.0" width="145.8" height="18" fill="#c9332c"/><text x="267.8" y="1045.0" font-family="Arial, sans-serif" font-size="13" fill="#202124">19,4%  (21–50 von 148)</text><text x="72" y="1081.0" text-anchor="end" font-family="Arial, sans-serif" font-size="13" fill="#83888d">21.</text><text x="114" y="1062.0" font-family="Arial, sans-serif" font-size="14" fill="#202124">Elite Friseur</text><rect x="114" y="1066.0" width="136.1" height="18" fill="#c9332c"/><text x="258.1" y="1081.0" font-family="Arial, sans-serif" font-size="13" fill="#202124">18,1%  (21–50 von 161)</text><text x="72" y="1117.0" text-anchor="end" font-family="Arial, sans-serif" font-size="13" fill="#83888d">22.</text><text x="114" y="1098.0" font-family="Arial, sans-serif" font-size="14" fill="#202124">TEXTILWAHN PM GmbH</text><rect x="114" y="1102.0" width="123.0" height="18" fill="#c9332c"/><text x="245.0" y="1117.0" font-family="Arial, sans-serif" font-size="13" fill="#202124">16,3%  (6–10 von 41)</text><text x="72" y="1153.0" text-anchor="end" font-family="Arial, sans-serif" font-size="13" fill="#83888d">23.</text><text x="114" y="1134.0" font-family="Arial, sans-serif" font-size="14" fill="#202124">Bäckerei Konditorei Café Newzella</text><rect x="114" y="1138.0" width="122.3" height="18" fill="#c9332c"/><text x="244.3" y="1153.0" font-family="Arial, sans-serif" font-size="13" fill="#202124">16,2%  (11–20 von 80)</text><text x="72" y="1189.0" text-anchor="end" font-family="Arial, sans-serif" font-size="13" fill="#83888d">24.</text><text x="114" y="1170.0" font-family="Arial, sans-serif" font-size="14" fill="#202124">Pizzaboy Leverkusen-Manfort</text><rect x="114" y="1174.0" width="121.7" height="18" fill="#c9332c"/><text x="243.7" y="1189.0" font-family="Arial, sans-serif" font-size="13" fill="#202124">16,1%  (51–100 von 392)</text><text x="72" y="1225.0" text-anchor="end" font-family="Arial, sans-serif" font-size="13" fill="#83888d">25.</text><text x="114" y="1206.0" font-family="Arial, sans-serif" font-size="14" fill="#202124">Eiscafe Dolomiti</text><rect x="114" y="1210.0" width="116.2" height="18" fill="#c9332c"/><text x="238.2" y="1225.0" font-family="Arial, sans-serif" font-size="13" fill="#202124">15,4%  (11–20 von 85)</text><text x="72" y="1261.0" text-anchor="end" font-family="Arial, sans-serif" font-size="13" fill="#83888d">26.</text><text x="114" y="1242.0" font-family="Arial, sans-serif" font-size="14" fill="#202124">Akdeniz Grill - Döner &amp; Pizza</text><rect x="114" y="1246.0" width="115.3" height="18" fill="#c9332c"/><text x="237.3" y="1261.0" font-family="Arial, sans-serif" font-size="13" fill="#202124">15,3%  (51–100 von 418)</text><text x="72" y="1297.0" text-anchor="end" font-family="Arial, sans-serif" font-size="13" fill="#83888d">27.</text><text x="114" y="1278.0" font-family="Arial, sans-serif" font-size="14" fill="#202124">Brauhaus Janes</text><rect x="114" y="1282.0" width="115.1" height="18" fill="#c9332c"/><text x="237.1" y="1297.0" font-family="Arial, sans-serif" font-size="13" fill="#202124">15,3%  (151–200 von 973)</text><text x="72" y="1333.0" text-anchor="end" font-family="Arial, sans-serif" font-size="13" fill="#83888d">28.</text><text x="114" y="1314.0" font-family="Arial, sans-serif" font-size="14" fill="#202124">Café Nöres - Leverkusen</text><rect x="114" y="1318.0" width="108.9" height="18" fill="#c9332c"/><text x="230.9" y="1333.0" font-family="Arial, sans-serif" font-size="13" fill="#202124">14,5%  (21–50 von 210)</text><text x="72" y="1369.0" text-anchor="end" font-family="Arial, sans-serif" font-size="13" fill="#83888d">29.</text><text x="114" y="1350.0" font-family="Arial, sans-serif" font-size="14" fill="#202124">Restaurant Haus am Park</text><rect x="114" y="1354.0" width="106.2" height="18" fill="#c9332c"/><text x="228.2" y="1369.0" font-family="Arial, sans-serif" font-size="13" fill="#202124">14,1%  (51–100 von 460)</text><text x="72" y="1405.0" text-anchor="end" font-family="Arial, sans-serif" font-size="13" fill="#83888d">30.</text><text x="114" y="1386.0" font-family="Arial, sans-serif" font-size="14" fill="#202124">Fliegerhütte by FloGourmet</text><rect x="114" y="1390.0" width="99.2" height="18" fill="#c9332c"/><text x="221.2" y="1405.0" font-family="Arial, sans-serif" font-size="13" fill="#202124">13,2%  (21–50 von 234)</text><text x="315" y="1444.0" text-anchor="middle" font-family="Arial, sans-serif" font-size="13" fill="#6f7377">Lösch-Quote (%) · Top 30</text></g><g><text x="665" y="230" font-family="Arial, sans-serif" font-size="27" font-weight="800" fill="#202124">2. Schlechtestes „echtes“ Rating</text><text x="665" y="260" font-family="Arial, sans-serif" font-size="16" fill="#6f7377">Modell: gelöschte Rezensionen waren 1★</text><rect x="665" y="322" width="470" height="1104" fill="#ffffff" opacity="0.96" filter="url(#softShadow)"/><line x1="699.0" y1="322" x2="699.0" y2="1406.0" stroke="#dde3e8" stroke-width="1"/><line x1="799.5" y1="322" x2="799.5" y2="1406.0" stroke="#dde3e8" stroke-width="1"/><line x1="900.0" y1="322" x2="900.0" y2="1406.0" stroke="#dde3e8" stroke-width="1"/><line x1="1000.5" y1="322" x2="1000.5" y2="1406.0" stroke="#dde3e8" stroke-width="1"/><line x1="1101.0" y1="322" x2="1101.0" y2="1406.0" stroke="#dde3e8" stroke-width="1"/><text x="657" y="361.0" text-anchor="end" font-family="Arial, sans-serif" font-size="13" fill="#83888d">1.</text><text x="699" y="342.0" font-family="Arial, sans-serif" font-size="14" fill="#202124">Hotel Solinger Hof</text><rect x="699" y="346.0" width="402.0" height="18" fill="#ef7d16"/><text x="1109.0" y="361.0" font-family="Arial, sans-serif" font-size="13" fill="#202124">2,62★  (vorher 3,9★)</text><text x="657" y="397.0" text-anchor="end" font-family="Arial, sans-serif" font-size="13" fill="#83888d">2.</text><text x="699" y="378.0" font-family="Arial, sans-serif" font-size="14" fill="#202124">Pizza Cab Leverkusen</text><rect x="699" y="382.0" width="392.2" height="18" fill="#ef7d16"/><text x="1099.2" y="397.0" font-family="Arial, sans-serif" font-size="13" fill="#202124">2,68★  (vorher 4,6★)</text><text x="657" y="433.0" text-anchor="end" font-family="Arial, sans-serif" font-size="13" fill="#83888d">3.</text><text x="699" y="414.0" font-family="Arial, sans-serif" font-size="14" fill="#202124">Praxis Dr. Klünsch &amp; Partner - Standort Schl…</text><rect x="699" y="418.0" width="377.3" height="18" fill="#ef7d16"/><text x="1084.3" y="433.0" font-family="Arial, sans-serif" font-size="13" fill="#202124">2,77★  (vorher 2,8★)</text><text x="657" y="469.0" text-anchor="end" font-family="Arial, sans-serif" font-size="13" fill="#83888d">4.</text><text x="699" y="450.0" font-family="Arial, sans-serif" font-size="14" fill="#202124">Finanzamt Leverkusen</text><rect x="699" y="454.0" width="365.0" height="18" fill="#ef7d16"/><text x="1072.0" y="469.0" font-family="Arial, sans-serif" font-size="13" fill="#202124">2,84★  (vorher 2,9★)</text><text x="657" y="505.0" text-anchor="end" font-family="Arial, sans-serif" font-size="13" fill="#83888d">5.</text><text x="699" y="486.0" font-family="Arial, sans-serif" font-size="14" fill="#202124">THE CLOUTH</text><rect x="699" y="490.0" width="321.9" height="18" fill="#ef7d16"/><text x="1028.9" y="505.0" font-family="Arial, sans-serif" font-size="13" fill="#202124">3,10★  (vorher 4,4★)</text><text x="657" y="541.0" text-anchor="end" font-family="Arial, sans-serif" font-size="13" fill="#83888d">6.</text><text x="699" y="522.0" font-family="Arial, sans-serif" font-size="14" fill="#202124">Hotel Garni Emir</text><rect x="699" y="526.0" width="318.2" height="18" fill="#ef7d16"/><text x="1025.2" y="541.0" font-family="Arial, sans-serif" font-size="13" fill="#202124">3,12★  (vorher 3,4★)</text><text x="657" y="577.0" text-anchor="end" font-family="Arial, sans-serif" font-size="13" fill="#83888d">7.</text><text x="699" y="558.0" font-family="Arial, sans-serif" font-size="14" fill="#202124">Klinikum Leverkusen</text><rect x="699" y="562.0" width="301.3" height="18" fill="#ef7d16"/><text x="1008.3" y="577.0" font-family="Arial, sans-serif" font-size="13" fill="#202124">3,22★  (vorher 3,4★)</text><text x="657" y="613.0" text-anchor="end" font-family="Arial, sans-serif" font-size="13" fill="#83888d">8.</text><text x="699" y="594.0" font-family="Arial, sans-serif" font-size="14" fill="#202124">Leoso Hotel Leverkusen</text><rect x="699" y="598.0" width="295.9" height="18" fill="#ef7d16"/><text x="1002.9" y="613.0" font-family="Arial, sans-serif" font-size="13" fill="#202124">3,25★  (vorher 4,0★)</text><text x="657" y="649.0" text-anchor="end" font-family="Arial, sans-serif" font-size="13" fill="#83888d">9.</text><text x="699" y="630.0" font-family="Arial, sans-serif" font-size="14" fill="#202124">SMARTY Leichlingen-Cologne Hotel | Boardingh…</text><rect x="699" y="634.0" width="294.9" height="18" fill="#ef7d16"/><text x="1001.9" y="649.0" font-family="Arial, sans-serif" font-size="13" fill="#202124">3,25★  (vorher 3,8★)</text><text x="657" y="685.0" text-anchor="end" font-family="Arial, sans-serif" font-size="13" fill="#83888d">10.</text><text x="699" y="666.0" font-family="Arial, sans-serif" font-size="14" fill="#202124">Hair-Creation E &amp; H</text><rect x="699" y="670.0" width="288.8" height="18" fill="#ef7d16"/><text x="995.8" y="685.0" font-family="Arial, sans-serif" font-size="13" fill="#202124">3,29★  (vorher 4,6★)</text><text x="657" y="721.0" text-anchor="end" font-family="Arial, sans-serif" font-size="13" fill="#83888d">11.</text><text x="699" y="702.0" font-family="Arial, sans-serif" font-size="14" fill="#202124">Hotel Lorien</text><rect x="699" y="706.0" width="288.6" height="18" fill="#ef7d16"/><text x="995.6" y="721.0" font-family="Arial, sans-serif" font-size="13" fill="#202124">3,29★  (vorher 3,3★)</text><text x="657" y="757.0" text-anchor="end" font-family="Arial, sans-serif" font-size="13" fill="#83888d">12.</text><text x="699" y="738.0" font-family="Arial, sans-serif" font-size="14" fill="#202124">Pinguin-Apotheke Rathausgalerie</text><rect x="699" y="742.0" width="287.4" height="18" fill="#ef7d16"/><text x="994.4" y="757.0" font-family="Arial, sans-serif" font-size="13" fill="#202124">3,30★  (vorher 3,5★)</text><text x="657" y="793.0" text-anchor="end" font-family="Arial, sans-serif" font-size="13" fill="#83888d">13.</text><text x="699" y="774.0" font-family="Arial, sans-serif" font-size="14" fill="#202124">Blisterzentrum Rheinland GmbH &amp; Co. KG (Leve…</text><rect x="699" y="778.0" width="283.7" height="18" fill="#ef7d16"/><text x="990.7" y="793.0" font-family="Arial, sans-serif" font-size="13" fill="#202124">3,32★  (vorher 3,5★)</text><text x="657" y="829.0" text-anchor="end" font-family="Arial, sans-serif" font-size="13" fill="#83888d">14.</text><text x="699" y="810.0" font-family="Arial, sans-serif" font-size="14" fill="#202124">StayInCologne</text><rect x="699" y="814.0" width="274.8" height="18" fill="#ef7d16"/><text x="981.8" y="829.0" font-family="Arial, sans-serif" font-size="13" fill="#202124">3,37★  (vorher 4,6★)</text><text x="657" y="865.0" text-anchor="end" font-family="Arial, sans-serif" font-size="13" fill="#83888d">15.</text><text x="699" y="846.0" font-family="Arial, sans-serif" font-size="14" fill="#202124">Sushi Palace Leverkusen</text><rect x="699" y="850.0" width="272.7" height="18" fill="#ef7d16"/><text x="979.7" y="865.0" font-family="Arial, sans-serif" font-size="13" fill="#202124">3,39★  (vorher 4,0★)</text><text x="657" y="901.0" text-anchor="end" font-family="Arial, sans-serif" font-size="13" fill="#83888d">16.</text><text x="699" y="882.0" font-family="Arial, sans-serif" font-size="14" fill="#202124">Rheinländer Seehotel</text><rect x="699" y="886.0" width="270.5" height="18" fill="#ef7d16"/><text x="977.5" y="901.0" font-family="Arial, sans-serif" font-size="13" fill="#202124">3,40★  (vorher 4,1★)</text><text x="657" y="937.0" text-anchor="end" font-family="Arial, sans-serif" font-size="13" fill="#83888d">17.</text><text x="699" y="918.0" font-family="Arial, sans-serif" font-size="14" fill="#202124">Schwimmschule Aqua-Vital</text><rect x="699" y="922.0" width="269.7" height="18" fill="#ef7d16"/><text x="976.7" y="937.0" font-family="Arial, sans-serif" font-size="13" fill="#202124">3,40★  (vorher 3,5★)</text><text x="657" y="973.0" text-anchor="end" font-family="Arial, sans-serif" font-size="13" fill="#83888d">18.</text><text x="699" y="954.0" font-family="Arial, sans-serif" font-size="14" fill="#202124">Hotel Villa Sophia</text><rect x="699" y="958.0" width="255.2" height="18" fill="#ef7d16"/><text x="962.2" y="973.0" font-family="Arial, sans-serif" font-size="13" fill="#202124">3,49★  (vorher 3,5★)</text><text x="657" y="1009.0" text-anchor="end" font-family="Arial, sans-serif" font-size="13" fill="#83888d">19.</text><text x="699" y="990.0" font-family="Arial, sans-serif" font-size="14" fill="#202124">Eiscafé Minini</text><rect x="699" y="994.0" width="247.7" height="18" fill="#ef7d16"/><text x="954.7" y="1009.0" font-family="Arial, sans-serif" font-size="13" fill="#202124">3,53★  (vorher 4,2★)</text><text x="657" y="1045.0" text-anchor="end" font-family="Arial, sans-serif" font-size="13" fill="#83888d">20.</text><text x="699" y="1026.0" font-family="Arial, sans-serif" font-size="14" fill="#202124">Hotel-Pension Schlafpunkt GmbH - Leverkusen</text><rect x="699" y="1030.0" width="244.5" height="18" fill="#ef7d16"/><text x="951.5" y="1045.0" font-family="Arial, sans-serif" font-size="13" fill="#202124">3,55★  (vorher 4,7★)</text><text x="657" y="1081.0" text-anchor="end" font-family="Arial, sans-serif" font-size="13" fill="#83888d">21.</text><text x="699" y="1062.0" font-family="Arial, sans-serif" font-size="14" fill="#202124">Numa Cologne Ehrenfeld</text><rect x="699" y="1066.0" width="240.8" height="18" fill="#ef7d16"/><text x="947.8" y="1081.0" font-family="Arial, sans-serif" font-size="13" fill="#202124">3,58★  (vorher 3,7★)</text><text x="657" y="1117.0" text-anchor="end" font-family="Arial, sans-serif" font-size="13" fill="#83888d">22.</text><text x="699" y="1098.0" font-family="Arial, sans-serif" font-size="14" fill="#202124">Wiesdorfer Grill Inh. Nikolaos Papageorgiou</text><rect x="699" y="1102.0" width="234.5" height="18" fill="#ef7d16"/><text x="941.5" y="1117.0" font-family="Arial, sans-serif" font-size="13" fill="#202124">3,61★  (vorher 4,6★)</text><text x="657" y="1153.0" text-anchor="end" font-family="Arial, sans-serif" font-size="13" fill="#83888d">23.</text><text x="699" y="1134.0" font-family="Arial, sans-serif" font-size="14" fill="#202124">ATU Leverkusen - Manfort</text><rect x="699" y="1138.0" width="227.8" height="18" fill="#ef7d16"/><text x="934.8" y="1153.0" font-family="Arial, sans-serif" font-size="13" fill="#202124">3,65★  (vorher 3,9★)</text><text x="657" y="1189.0" text-anchor="end" font-family="Arial, sans-serif" font-size="13" fill="#83888d">24.</text><text x="699" y="1170.0" font-family="Arial, sans-serif" font-size="14" fill="#202124">Classic Hotel Harmonie</text><rect x="699" y="1174.0" width="227.1" height="18" fill="#ef7d16"/><text x="934.1" y="1189.0" font-family="Arial, sans-serif" font-size="13" fill="#202124">3,66★  (vorher 4,5★)</text><text x="657" y="1225.0" text-anchor="end" font-family="Arial, sans-serif" font-size="13" fill="#83888d">25.</text><text x="699" y="1206.0" font-family="Arial, sans-serif" font-size="14" fill="#202124">Station - Hostel für Backpacker, Köln</text><rect x="699" y="1210.0" width="220.0" height="18" fill="#ef7d16"/><text x="927.0" y="1225.0" font-family="Arial, sans-serif" font-size="13" fill="#202124">3,70★  (vorher 3,7★)</text><text x="657" y="1261.0" text-anchor="end" font-family="Arial, sans-serif" font-size="13" fill="#83888d">26.</text><text x="699" y="1242.0" font-family="Arial, sans-serif" font-size="14" fill="#202124">Wacht am Rhein</text><rect x="699" y="1246.0" width="219.8" height="18" fill="#ef7d16"/><text x="926.8" y="1261.0" font-family="Arial, sans-serif" font-size="13" fill="#202124">3,70★  (vorher 4,0★)</text><text x="657" y="1297.0" text-anchor="end" font-family="Arial, sans-serif" font-size="13" fill="#83888d">27.</text><text x="699" y="1278.0" font-family="Arial, sans-serif" font-size="14" fill="#202124">Haven Hotels - Hotel Am Stadion</text><rect x="699" y="1282.0" width="218.3" height="18" fill="#ef7d16"/><text x="925.3" y="1297.0" font-family="Arial, sans-serif" font-size="13" fill="#202124">3,71★  (vorher 4,1★)</text><text x="657" y="1333.0" text-anchor="end" font-family="Arial, sans-serif" font-size="13" fill="#83888d">28.</text><text x="699" y="1314.0" font-family="Arial, sans-serif" font-size="14" fill="#202124">Veranstaltungsbüro Nolden GmbH</text><rect x="699" y="1318.0" width="205.0" height="18" fill="#ef7d16"/><text x="912.0" y="1333.0" font-family="Arial, sans-serif" font-size="13" fill="#202124">3,79★  (vorher 4,6★)</text><text x="657" y="1369.0" text-anchor="end" font-family="Arial, sans-serif" font-size="13" fill="#83888d">29.</text><text x="699" y="1350.0" font-family="Arial, sans-serif" font-size="14" fill="#202124">Eiscafe Dolomiti</text><rect x="699" y="1354.0" width="204.3" height="18" fill="#ef7d16"/><text x="911.3" y="1369.0" font-family="Arial, sans-serif" font-size="13" fill="#202124">3,79★  (vorher 4,3★)</text><text x="657" y="1405.0" text-anchor="end" font-family="Arial, sans-serif" font-size="13" fill="#83888d">30.</text><text x="699" y="1386.0" font-family="Arial, sans-serif" font-size="14" fill="#202124">Daddy&#39;s Pizza Leverkusen</text><rect x="699" y="1390.0" width="200.7" height="18" fill="#ef7d16"/><text x="907.7" y="1405.0" font-family="Arial, sans-serif" font-size="13" fill="#202124">3,81★  (vorher 4,8★)</text><text x="900" y="1444.0" text-anchor="middle" font-family="Arial, sans-serif" font-size="13" fill="#6f7377">Punkte unter 5★</text></g><g><text x="1250" y="230" font-family="Arial, sans-serif" font-size="27" font-weight="800" fill="#202124">3. Beste Orte ohne Löschbanner</text><text x="1250" y="260" font-family="Arial, sans-serif" font-size="16" fill="#6f7377">kein sichtbarer Diffamierungs-Löschbanner — ab 100 Rezensionen</text><rect x="1250" y="322" width="470" height="1104" fill="#ffffff" opacity="0.96" filter="url(#softShadow)"/><line x1="1284.0" y1="322" x2="1284.0" y2="1406.0" stroke="#dde3e8" stroke-width="1"/><line x1="1384.5" y1="322" x2="1384.5" y2="1406.0" stroke="#dde3e8" stroke-width="1"/><line x1="1485.0" y1="322" x2="1485.0" y2="1406.0" stroke="#dde3e8" stroke-width="1"/><line x1="1585.5" y1="322" x2="1585.5" y2="1406.0" stroke="#dde3e8" stroke-width="1"/><line x1="1686.0" y1="322" x2="1686.0" y2="1406.0" stroke="#dde3e8" stroke-width="1"/><text x="1242" y="361.0" text-anchor="end" font-family="Arial, sans-serif" font-size="13" fill="#83888d">1.</text><text x="1284" y="342.0" font-family="Arial, sans-serif" font-size="14" fill="#202124">Juber Immobilien Marketing GmbH</text><rect x="1284" y="346.0" width="402.0" height="18" fill="#2e7d32"/><text x="1694.0" y="361.0" font-family="Arial, sans-serif" font-size="13" fill="#202124">5,0★  (241 Rezensionen)</text><text x="1242" y="397.0" text-anchor="end" font-family="Arial, sans-serif" font-size="13" fill="#83888d">2.</text><text x="1284" y="378.0" font-family="Arial, sans-serif" font-size="14" fill="#202124">Cafe Milano Leverkusen Opladen</text><rect x="1284" y="382.0" width="402.0" height="18" fill="#2e7d32"/><text x="1694.0" y="397.0" font-family="Arial, sans-serif" font-size="13" fill="#202124">5,0★  (236 Rezensionen)</text><text x="1242" y="433.0" text-anchor="end" font-family="Arial, sans-serif" font-size="13" fill="#83888d">3.</text><text x="1284" y="414.0" font-family="Arial, sans-serif" font-size="14" fill="#202124">Fahrschule Simple-Drive Manfort</text><rect x="1284" y="418.0" width="402.0" height="18" fill="#2e7d32"/><text x="1694.0" y="433.0" font-family="Arial, sans-serif" font-size="13" fill="#202124">5,0★  (172 Rezensionen)</text><text x="1242" y="469.0" text-anchor="end" font-family="Arial, sans-serif" font-size="13" fill="#83888d">4.</text><text x="1284" y="450.0" font-family="Arial, sans-serif" font-size="14" fill="#202124">MMA FOR ONE</text><rect x="1284" y="454.0" width="402.0" height="18" fill="#2e7d32"/><text x="1694.0" y="469.0" font-family="Arial, sans-serif" font-size="13" fill="#202124">5,0★  (158 Rezensionen)</text><text x="1242" y="505.0" text-anchor="end" font-family="Arial, sans-serif" font-size="13" fill="#83888d">5.</text><text x="1284" y="486.0" font-family="Arial, sans-serif" font-size="14" fill="#202124">DH Cosmetic</text><rect x="1284" y="490.0" width="402.0" height="18" fill="#2e7d32"/><text x="1694.0" y="505.0" font-family="Arial, sans-serif" font-size="13" fill="#202124">5,0★  (139 Rezensionen)</text><text x="1242" y="541.0" text-anchor="end" font-family="Arial, sans-serif" font-size="13" fill="#83888d">6.</text><text x="1284" y="522.0" font-family="Arial, sans-serif" font-size="14" fill="#202124">Bomé Cut Barber Shop</text><rect x="1284" y="526.0" width="402.0" height="18" fill="#2e7d32"/><text x="1694.0" y="541.0" font-family="Arial, sans-serif" font-size="13" fill="#202124">5,0★  (137 Rezensionen)</text><text x="1242" y="577.0" text-anchor="end" font-family="Arial, sans-serif" font-size="13" fill="#83888d">7.</text><text x="1284" y="558.0" font-family="Arial, sans-serif" font-size="14" fill="#202124">Sunny Mind Yoga Leverkusen</text><rect x="1284" y="562.0" width="402.0" height="18" fill="#2e7d32"/><text x="1694.0" y="577.0" font-family="Arial, sans-serif" font-size="13" fill="#202124">5,0★  (137 Rezensionen)</text><text x="1242" y="613.0" text-anchor="end" font-family="Arial, sans-serif" font-size="13" fill="#83888d">8.</text><text x="1284" y="594.0" font-family="Arial, sans-serif" font-size="14" fill="#202124">Zur Burgstiege</text><rect x="1284" y="598.0" width="402.0" height="18" fill="#2e7d32"/><text x="1694.0" y="613.0" font-family="Arial, sans-serif" font-size="13" fill="#202124">5,0★  (134 Rezensionen)</text><text x="1242" y="649.0" text-anchor="end" font-family="Arial, sans-serif" font-size="13" fill="#83888d">9.</text><text x="1284" y="630.0" font-family="Arial, sans-serif" font-size="14" fill="#202124">Babo Barbershop</text><rect x="1284" y="634.0" width="402.0" height="18" fill="#2e7d32"/><text x="1694.0" y="649.0" font-family="Arial, sans-serif" font-size="13" fill="#202124">5,0★  (122 Rezensionen)</text><text x="1242" y="685.0" text-anchor="end" font-family="Arial, sans-serif" font-size="13" fill="#83888d">10.</text><text x="1284" y="666.0" font-family="Arial, sans-serif" font-size="14" fill="#202124">Papperlapapp NRW</text><rect x="1284" y="670.0" width="402.0" height="18" fill="#2e7d32"/><text x="1694.0" y="685.0" font-family="Arial, sans-serif" font-size="13" fill="#202124">5,0★  (120 Rezensionen)</text><text x="1242" y="721.0" text-anchor="end" font-family="Arial, sans-serif" font-size="13" fill="#83888d">11.</text><text x="1284" y="702.0" font-family="Arial, sans-serif" font-size="14" fill="#202124">KravMaga-LEV - Zentrum für Selbstverteidigun…</text><rect x="1284" y="706.0" width="402.0" height="18" fill="#2e7d32"/><text x="1694.0" y="721.0" font-family="Arial, sans-serif" font-size="13" fill="#202124">5,0★  (114 Rezensionen)</text><text x="1242" y="757.0" text-anchor="end" font-family="Arial, sans-serif" font-size="13" fill="#83888d">12.</text><text x="1284" y="738.0" font-family="Arial, sans-serif" font-size="14" fill="#202124">Sunbi Skin Care &amp; Treatments Kosmetikstudio …</text><rect x="1284" y="742.0" width="402.0" height="18" fill="#2e7d32"/><text x="1694.0" y="757.0" font-family="Arial, sans-serif" font-size="13" fill="#202124">5,0★  (113 Rezensionen)</text><text x="1242" y="793.0" text-anchor="end" font-family="Arial, sans-serif" font-size="13" fill="#83888d">13.</text><text x="1284" y="774.0" font-family="Arial, sans-serif" font-size="14" fill="#202124">Laziz</text><rect x="1284" y="778.0" width="402.0" height="18" fill="#2e7d32"/><text x="1694.0" y="793.0" font-family="Arial, sans-serif" font-size="13" fill="#202124">5,0★  (113 Rezensionen)</text><text x="1242" y="829.0" text-anchor="end" font-family="Arial, sans-serif" font-size="13" fill="#83888d">14.</text><text x="1284" y="810.0" font-family="Arial, sans-serif" font-size="14" fill="#202124">Yoga up your life</text><rect x="1284" y="814.0" width="402.0" height="18" fill="#2e7d32"/><text x="1694.0" y="829.0" font-family="Arial, sans-serif" font-size="13" fill="#202124">5,0★  (111 Rezensionen)</text><text x="1242" y="865.0" text-anchor="end" font-family="Arial, sans-serif" font-size="13" fill="#83888d">15.</text><text x="1284" y="846.0" font-family="Arial, sans-serif" font-size="14" fill="#202124">TASKIN - sense of beauty Leverkusen</text><rect x="1284" y="850.0" width="402.0" height="18" fill="#2e7d32"/><text x="1694.0" y="865.0" font-family="Arial, sans-serif" font-size="13" fill="#202124">5,0★  (109 Rezensionen)</text><text x="1242" y="901.0" text-anchor="end" font-family="Arial, sans-serif" font-size="13" fill="#83888d">16.</text><text x="1284" y="882.0" font-family="Arial, sans-serif" font-size="14" fill="#202124">ADDESTA Friseur &amp; Barbershop</text><rect x="1284" y="886.0" width="402.0" height="18" fill="#2e7d32"/><text x="1694.0" y="901.0" font-family="Arial, sans-serif" font-size="13" fill="#202124">5,0★  (109 Rezensionen)</text><text x="1242" y="937.0" text-anchor="end" font-family="Arial, sans-serif" font-size="13" fill="#83888d">17.</text><text x="1284" y="918.0" font-family="Arial, sans-serif" font-size="14" fill="#202124">ViamedGO Leverkusen GmbH</text><rect x="1284" y="922.0" width="402.0" height="18" fill="#2e7d32"/><text x="1694.0" y="937.0" font-family="Arial, sans-serif" font-size="13" fill="#202124">5,0★  (107 Rezensionen)</text><text x="1242" y="973.0" text-anchor="end" font-family="Arial, sans-serif" font-size="13" fill="#83888d">18.</text><text x="1284" y="954.0" font-family="Arial, sans-serif" font-size="14" fill="#202124">Anwar Beauty Lounge</text><rect x="1284" y="958.0" width="402.0" height="18" fill="#2e7d32"/><text x="1694.0" y="973.0" font-family="Arial, sans-serif" font-size="13" fill="#202124">5,0★  (101 Rezensionen)</text><text x="1242" y="1009.0" text-anchor="end" font-family="Arial, sans-serif" font-size="13" fill="#83888d">19.</text><text x="1284" y="990.0" font-family="Arial, sans-serif" font-size="14" fill="#202124">MAVERA Meze | Tapas</text><rect x="1284" y="994.0" width="394.0" height="18" fill="#2e7d32"/><text x="1686.0" y="1009.0" font-family="Arial, sans-serif" font-size="13" fill="#202124">4,9★  (1.451 Rezensionen)</text><text x="1242" y="1045.0" text-anchor="end" font-family="Arial, sans-serif" font-size="13" fill="#83888d">20.</text><text x="1284" y="1026.0" font-family="Arial, sans-serif" font-size="14" fill="#202124">Fahrschule Simple-Drive</text><rect x="1284" y="1030.0" width="394.0" height="18" fill="#2e7d32"/><text x="1686.0" y="1045.0" font-family="Arial, sans-serif" font-size="13" fill="#202124">4,9★  (1.261 Rezensionen)</text><text x="1242" y="1081.0" text-anchor="end" font-family="Arial, sans-serif" font-size="13" fill="#83888d">21.</text><text x="1284" y="1062.0" font-family="Arial, sans-serif" font-size="14" fill="#202124">Felten Sports</text><rect x="1284" y="1066.0" width="394.0" height="18" fill="#2e7d32"/><text x="1686.0" y="1081.0" font-family="Arial, sans-serif" font-size="13" fill="#202124">4,9★  (897 Rezensionen)</text><text x="1242" y="1117.0" text-anchor="end" font-family="Arial, sans-serif" font-size="13" fill="#83888d">22.</text><text x="1284" y="1098.0" font-family="Arial, sans-serif" font-size="14" fill="#202124">Fahrschule &amp; Berufskraftfahrschule Westerman…</text><rect x="1284" y="1102.0" width="394.0" height="18" fill="#2e7d32"/><text x="1686.0" y="1117.0" font-family="Arial, sans-serif" font-size="13" fill="#202124">4,9★  (687 Rezensionen)</text><text x="1242" y="1153.0" text-anchor="end" font-family="Arial, sans-serif" font-size="13" fill="#83888d">23.</text><text x="1284" y="1134.0" font-family="Arial, sans-serif" font-size="14" fill="#202124">DAMASCO - Leverkusen</text><rect x="1284" y="1138.0" width="394.0" height="18" fill="#2e7d32"/><text x="1686.0" y="1153.0" font-family="Arial, sans-serif" font-size="13" fill="#202124">4,9★  (560 Rezensionen)</text><text x="1242" y="1189.0" text-anchor="end" font-family="Arial, sans-serif" font-size="13" fill="#83888d">24.</text><text x="1284" y="1170.0" font-family="Arial, sans-serif" font-size="14" fill="#202124">Marienburg Monheim - Marienburg Monheim Betr…</text><rect x="1284" y="1174.0" width="394.0" height="18" fill="#2e7d32"/><text x="1686.0" y="1189.0" font-family="Arial, sans-serif" font-size="13" fill="#202124">4,9★  (430 Rezensionen)</text><text x="1242" y="1225.0" text-anchor="end" font-family="Arial, sans-serif" font-size="13" fill="#83888d">25.</text><text x="1284" y="1206.0" font-family="Arial, sans-serif" font-size="14" fill="#202124">Kaffee Express- Catering</text><rect x="1284" y="1210.0" width="394.0" height="18" fill="#2e7d32"/><text x="1686.0" y="1225.0" font-family="Arial, sans-serif" font-size="13" fill="#202124">4,9★  (419 Rezensionen)</text><text x="1242" y="1261.0" text-anchor="end" font-family="Arial, sans-serif" font-size="13" fill="#83888d">26.</text><text x="1284" y="1242.0" font-family="Arial, sans-serif" font-size="14" fill="#202124">STUDIO MO</text><rect x="1284" y="1246.0" width="394.0" height="18" fill="#2e7d32"/><text x="1686.0" y="1261.0" font-family="Arial, sans-serif" font-size="13" fill="#202124">4,9★  (319 Rezensionen)</text><text x="1242" y="1297.0" text-anchor="end" font-family="Arial, sans-serif" font-size="13" fill="#83888d">27.</text><text x="1284" y="1278.0" font-family="Arial, sans-serif" font-size="14" fill="#202124">FORNACE 1983 die Pizzabar</text><rect x="1284" y="1282.0" width="394.0" height="18" fill="#2e7d32"/><text x="1686.0" y="1297.0" font-family="Arial, sans-serif" font-size="13" fill="#202124">4,9★  (285 Rezensionen)</text><text x="1242" y="1333.0" text-anchor="end" font-family="Arial, sans-serif" font-size="13" fill="#83888d">28.</text><text x="1284" y="1314.0" font-family="Arial, sans-serif" font-size="14" fill="#202124">Reisebüro Hebbel</text><rect x="1284" y="1318.0" width="394.0" height="18" fill="#2e7d32"/><text x="1686.0" y="1333.0" font-family="Arial, sans-serif" font-size="13" fill="#202124">4,9★  (273 Rezensionen)</text><text x="1242" y="1369.0" text-anchor="end" font-family="Arial, sans-serif" font-size="13" fill="#83888d">29.</text><text x="1284" y="1350.0" font-family="Arial, sans-serif" font-size="14" fill="#202124">Nadine Kasten – Friseurmeisterin und Visagis…</text><rect x="1284" y="1354.0" width="394.0" height="18" fill="#2e7d32"/><text x="1686.0" y="1369.0" font-family="Arial, sans-serif" font-size="13" fill="#202124">4,9★  (263 Rezensionen)</text><text x="1242" y="1405.0" text-anchor="end" font-family="Arial, sans-serif" font-size="13" fill="#83888d">30.</text><text x="1284" y="1386.0" font-family="Arial, sans-serif" font-size="14" fill="#202124">Narin Kosmetik</text><rect x="1284" y="1390.0" width="394.0" height="18" fill="#2e7d32"/><text x="1686.0" y="1405.0" font-family="Arial, sans-serif" font-size="13" fill="#202124">4,9★  (263 Rezensionen)</text><text x="1485" y="1444.0" text-anchor="middle" font-family="Arial, sans-serif" font-size="13" fill="#6f7377">Rating (★)</text></g><g><text x="120" y="1660" font-family="Arial, sans-serif" font-size="28" font-weight="800" fill="#202124">Verteilung der Lösch-Stufen über alle 1.620 Orte</text><rect x="120" y="1715" width="1540" height="560" fill="#ffffff" opacity="0.96" filter="url(#softShadow)"/><text x="150" y="1781" font-family="Arial, sans-serif" font-size="18" fill="#202124">Keine Löschung</text><rect x="450" y="1765" width="900" height="24" fill="#edf2f5"/><rect x="450" y="1765" width="900.0" height="24" fill="#2e7d32"/><text x="1380" y="1783" font-family="Arial, sans-serif" font-size="18" fill="#202124">1.487 (91,8%)</text><text x="150" y="1826" font-family="Arial, sans-serif" font-size="18" fill="#202124">Eine gelöscht</text><rect x="450" y="1810" width="900" height="24" fill="#edf2f5"/><rect x="450" y="1810" width="19.4" height="24" fill="#8bc34a"/><text x="1380" y="1828" font-family="Arial, sans-serif" font-size="18" fill="#202124">32 (2,0%)</text><text x="150" y="1871" font-family="Arial, sans-serif" font-size="18" fill="#202124">2–5 gelöscht</text><rect x="450" y="1855" width="900" height="24" fill="#edf2f5"/><rect x="450" y="1855" width="18.2" height="24" fill="#cddc39"/><text x="1380" y="1873" font-family="Arial, sans-serif" font-size="18" fill="#202124">30 (1,9%)</text><text x="150" y="1916" font-family="Arial, sans-serif" font-size="18" fill="#202124">6–10 gelöscht</text><rect x="450" y="1900" width="900" height="24" fill="#edf2f5"/><rect x="450" y="1900" width="9.7" height="24" fill="#ffca28"/><text x="1380" y="1918" font-family="Arial, sans-serif" font-size="18" fill="#202124">16 (1,0%)</text><text x="150" y="1961" font-family="Arial, sans-serif" font-size="18" fill="#202124">11–20 gelöscht</text><rect x="450" y="1945" width="900" height="24" fill="#edf2f5"/><rect x="450" y="1945" width="8.5" height="24" fill="#ff9f1c"/><text x="1380" y="1963" font-family="Arial, sans-serif" font-size="18" fill="#202124">14 (0,9%)</text><text x="150" y="2006" font-family="Arial, sans-serif" font-size="18" fill="#202124">21–50 gelöscht</text><rect x="450" y="1990" width="900" height="24" fill="#edf2f5"/><rect x="450" y="1990" width="13.3" height="24" fill="#ff6d00"/><text x="1380" y="2008" font-family="Arial, sans-serif" font-size="18" fill="#202124">22 (1,4%)</text><text x="150" y="2051" font-family="Arial, sans-serif" font-size="18" fill="#202124">51–100 gelöscht</text><rect x="450" y="2035" width="900" height="24" fill="#edf2f5"/><rect x="450" y="2035" width="6.7" height="24" fill="#e5391b"/><text x="1380" y="2053" font-family="Arial, sans-serif" font-size="18" fill="#202124">11 (0,7%)</text><text x="150" y="2096" font-family="Arial, sans-serif" font-size="18" fill="#202124">101–200 gelöscht</text><rect x="450" y="2080" width="900" height="24" fill="#edf2f5"/><rect x="450" y="2080" width="1.2" height="24" fill="#c62828"/><text x="1380" y="2098" font-family="Arial, sans-serif" font-size="18" fill="#202124">2 (0,1%)</text><text x="150" y="2141" font-family="Arial, sans-serif" font-size="18" fill="#202124">201–250 gelöscht</text><rect x="450" y="2125" width="900" height="24" fill="#edf2f5"/><rect x="450" y="2125" width="1.8" height="24" fill="#8e1919"/><text x="1380" y="2143" font-family="Arial, sans-serif" font-size="18" fill="#202124">3 (0,2%)</text><text x="150" y="2186" font-family="Arial, sans-serif" font-size="18" fill="#202124">Über 250 gelöscht</text><rect x="450" y="2170" width="900" height="24" fill="#edf2f5"/><rect x="450" y="2170" width="1.8" height="24" fill="#5b0f0f"/><text x="1380" y="2188" font-family="Arial, sans-serif" font-size="18" fill="#202124">3 (0,2%)</text></g><text x="40" y="2460" font-family="Arial, sans-serif" font-size="13" fill="#8a8f94">Quelle: Google Maps, öffentlich sichtbare Banner; Analyse-Snapshot 15.08.2026</text><text x="1760" y="2460" text-anchor="end" font-family="Arial, sans-serif" font-size="13" fill="#8a8f94">© <a href="https://patwoz.dev" target="_blank" style="fill:#8a8f94;text-decoration:none">Patrick Wozniak</a></text><text x="1760" y="2480" text-anchor="end" font-family="Arial, sans-serif" font-size="11" fill="#aab0b5">patwoz.dev</text></svg>
